HIERARCHY
ROOT Hips
{
  OFFSET 5.84602e-005 68.8428 3.50346
  CHANNELS 6 Xposition Yposition Zposition Zrotation Xrotation Yrotation
  JOINT Spine
  {
    OFFSET 0 8.597 -4.6522
    CHANNELS 3 Zrotation Xrotation Yrotation
    JOINT Spine1
    {
      OFFSET 0 7.8454 0.4098
      CHANNELS 3 Zrotation Xrotation Yrotation
      JOINT Spine2
      {
        OFFSET 0 9.7078 -2.1609
        CHANNELS 3 Zrotation Xrotation Yrotation
        JOINT Neck
        {
          OFFSET 0 21.8761 -0.4549
          CHANNELS 3 Zrotation Xrotation Yrotation
          JOINT Head
          {
            OFFSET 0 12.3537 3.3602
            CHANNELS 3 Zrotation Xrotation Yrotation
            End Site
            {
              OFFSET 0.0001 18.9506 0.5657
            }
          }
        }
        JOINT LeftShoulder
        {
          OFFSET 2.2086 21.1115 7.2329
          CHANNELS 3 Zrotation Xrotation Yrotation
          JOINT LeftArm
          {
            OFFSET 13.1193 3.0282 -4.8998
            CHANNELS 3 Zrotation Xrotation Yrotation
            JOINT LeftForeArm
            {
              OFFSET 27.4081 -0.0973053 -0.2375
              CHANNELS 3 Zrotation Xrotation Yrotation
              JOINT LeftHand
              {
                OFFSET 22.8641 0.0662994 -0.1369
                CHANNELS 3 Zrotation Xrotation Yrotation
                JOINT LeftHandIndex1
                {
                  OFFSET 8.8614 0.775009 2.4612
                  CHANNELS 3 Zrotation Xrotation Yrotation
                  JOINT LeftHandIndex2
                  {
                    OFFSET 3.3146 -0.808304 0.5841
                    CHANNELS 3 Zrotation Xrotation Yrotation
                    JOINT LeftHandIndex3
                    {
                      OFFSET 2.2628 -0.552002 0.3989
                      CHANNELS 3 Zrotation Xrotation Yrotation
                      End Site
                      {
                        OFFSET 1.6102 -0.4807 0.2612
                      }
                    }
                  }
                }
                JOINT LeftHandMiddle1
                {
                  OFFSET 8.9937 0.895004 0.2143
                  CHANNELS 3 Zrotation Xrotation Yrotation
                  JOINT LeftHandMiddle2
                  {
                    OFFSET 4.0984 0.0113983 -0.0242
                    CHANNELS 3 Zrotation Xrotation Yrotation
                    JOINT LeftHandMiddle3
                    {
                      OFFSET 2.2716 0.00689697 -0.0138001
                      CHANNELS 3 Zrotation Xrotation Yrotation
                      End Site
                      {
                        OFFSET 2.0404 -0.1441 0.0027
                      }
                    }
                  }
                }
                JOINT LeftHandRing1
                {
                  OFFSET 8.5234 0.597198 -2.0164
                  CHANNELS 3 Zrotation Xrotation Yrotation
                  JOINT LeftHandRing2
                  {
                    OFFSET 3.7188 -0.188293 -0.2328
                    CHANNELS 3 Zrotation Xrotation Yrotation
                    JOINT LeftHandRing3
                    {
                      OFFSET 2.1191 -0.106598 -0.1332
                      CHANNELS 3 Zrotation Xrotation Yrotation
                      End Site
                      {
                        OFFSET 1.8737 -0.2304 -0.0886
                      }
                    }
                  }
                }
                JOINT LeftHandPinky1
                {
                  OFFSET 7.9094 -0.601089 -3.4825
                  CHANNELS 3 Zrotation Xrotation Yrotation
                  JOINT LeftHandPinky2
                  {
                    OFFSET 2.2874 -0.477005 -0.6314
                    CHANNELS 3 Zrotation Xrotation Yrotation
                    JOINT LeftHandPinky3
                    {
                      OFFSET 1.6774 -0.349396 -0.4633
                      CHANNELS 3 Zrotation Xrotation Yrotation
                      End Site
                      {
                        OFFSET 1.4888 -0.4091 -0.3416
                      }
                    }
                  }
                }
                JOINT LeftHandThumb1
                {
                  OFFSET 1.833 -1.3875 1.3896
                  CHANNELS 3 Zrotation Xrotation Yrotation
                  JOINT LeftHandThumb2
                  {
                    OFFSET 3.4129 -1.121 2.5732
                    CHANNELS 3 Zrotation Xrotation Yrotation
                    JOINT LeftHandThumb3
                    {
                      OFFSET 2.2474 -0.804199 1.6192
                      CHANNELS 3 Zrotation Xrotation Yrotation
                      End Site
                      {
                        OFFSET 1.6527 -0.5689 1.1317
                      }
                    }
                  }
                }
              }
            }
          }
        }
        JOINT RightShoulder
        {
          OFFSET -2.2086 21.1115 7.2329
          CHANNELS 3 Zrotation Xrotation Yrotation
          JOINT RightArm
          {
            OFFSET -13.1216 3.0287 -4.9007
            CHANNELS 3 Zrotation Xrotation Yrotation
            JOINT RightForeArm
            {
              OFFSET -27.4081 -0.0973053 -0.2375
              CHANNELS 3 Zrotation Xrotation Yrotation
              JOINT RightHand
              {
                OFFSET -22.8641 0.0664063 -0.1369
                CHANNELS 3 Zrotation Xrotation Yrotation
                JOINT RightHandIndex1
                {
                  OFFSET -8.8614 0.774994 2.4612
                  CHANNELS 3 Zrotation Xrotation Yrotation
                  JOINT RightHandIndex2
                  {
                    OFFSET -3.3146 -0.808304 0.5841
                    CHANNELS 3 Zrotation Xrotation Yrotation
                    JOINT RightHandIndex3
                    {
                      OFFSET -2.2628 -0.552002 0.3989
                      CHANNELS 3 Zrotation Xrotation Yrotation
                      End Site
                      {
                        OFFSET -1.6102 -0.4807 0.2612
                      }
                    }
                  }
                }
                JOINT RightHandMiddle1
                {
                  OFFSET -8.9937 0.894989 0.2143
                  CHANNELS 3 Zrotation Xrotation Yrotation
                  JOINT RightHandMiddle2
                  {
                    OFFSET -4.0984 0.0113983 -0.0242
                    CHANNELS 3 Zrotation Xrotation Yrotation
                    JOINT RightHandMiddle3
                    {
                      OFFSET -2.2716 0.00691223 -0.0138001
                      CHANNELS 3 Zrotation Xrotation Yrotation
                      End Site
                      {
                        OFFSET -2.0404 -0.1441 0.0027
                      }
                    }
                  }
                }
                JOINT RightHandRing1
                {
                  OFFSET -8.5234 0.597198 -2.0164
                  CHANNELS 3 Zrotation Xrotation Yrotation
                  JOINT RightHandRing2
                  {
                    OFFSET -3.7188 -0.188309 -0.2328
                    CHANNELS 3 Zrotation Xrotation Yrotation
                    JOINT RightHandRing3
                    {
                      OFFSET -2.1191 -0.106598 -0.1332
                      CHANNELS 3 Zrotation Xrotation Yrotation
                      End Site
                      {
                        OFFSET -1.8737 -0.2304 -0.0886
                      }
                    }
                  }
                }
                JOINT RightHandPinky1
                {
                  OFFSET -7.9094 -0.601105 -3.4825
                  CHANNELS 3 Zrotation Xrotation Yrotation
                  JOINT RightHandPinky2
                  {
                    OFFSET -2.2874 -0.477005 -0.6314
                    CHANNELS 3 Zrotation Xrotation Yrotation
                    JOINT RightHandPinky3
                    {
                      OFFSET -1.6774 -0.349396 -0.4633
                      CHANNELS 3 Zrotation Xrotation Yrotation
                      End Site
                      {
                        OFFSET -1.4888 -0.4091 -0.3416
                      }
                    }
                  }
                }
                JOINT RightHandThumb1
                {
                  OFFSET -1.833 -1.38751 1.3896
                  CHANNELS 3 Zrotation Xrotation Yrotation
                  JOINT RightHandThumb2
                  {
                    OFFSET -3.41299 -1.12099 2.5732
                    CHANNELS 3 Zrotation Xrotation Yrotation
                    JOINT RightHandThumb3
                    {
                      OFFSET -2.24741 -0.804108 1.6192
                      CHANNELS 3 Zrotation Xrotation Yrotation
                      End Site
                      {
                        OFFSET -1.6527 -0.5689 1.1317
                      }
                    }
                  }
                }
              }
            }
          }
        }
      }
    }
  }
  JOINT RightUpLeg
  {
    OFFSET -9.1966 3.8861 -0.7581
    CHANNELS 3 Zrotation Xrotation Yrotation
    JOINT RightLeg
    {
      OFFSET -0.7359 -41.0265 0
      CHANNELS 3 Zrotation Xrotation Yrotation
      JOINT RightFoot
      {
        OFFSET 0 -40.2855 0
        CHANNELS 3 Zrotation Xrotation Yrotation
        JOINT RightToeBase
        {
          OFFSET 0 -5.6122 11.7359
          CHANNELS 3 Zrotation Xrotation Yrotation
          End Site
          {
            OFFSET 0 0 7.8731
          }
        }
      }
    }
  }
  JOINT LeftUpLeg
  {
    OFFSET 9.1965 3.8864 -0.7581
    CHANNELS 3 Zrotation Xrotation Yrotation
    JOINT LeftLeg
    {
      OFFSET 0.7359 -41.0268 0
      CHANNELS 3 Zrotation Xrotation Yrotation
      JOINT LeftFoot
      {
        OFFSET 0 -40.2855 0
        CHANNELS 3 Zrotation Xrotation Yrotation
        JOINT LeftToeBase
        {
          OFFSET 0 -5.6122 11.7359
          CHANNELS 3 Zrotation Xrotation Yrotation
          End Site
          {
            OFFSET 0 0 7.8731
          }
        }
      }
    }
  }
}
MOTION
Frames:	4
Frame Time:	0.0333333
2.35785 -8.31885 -56.9569 -0.00682213 -63.0021 43.9937 1.80224 12.9286 3.19259 2.95836 25.9347 6.20223 2.95837 25.9347 6.20222 6.03802e-006 2.28548e-005 -1.82613e-005 -0.00030752 -12.0003 29.9967 -2.39532e-006 -7.18495e-006 7.79951e-007 -6.75275 22.6147 -20.6546 -18.77 -7.03918 -70.1683 12.3522 -54.4691 -36.0561 -1.31813e-006 5.40399e-007 -8.55605e-007 -4.34747e-006 2.95536e-007 9.2505e-007 -1.31813e-006 5.40399e-007 -8.55605e-007 -1.31813e-006 5.40399e-007 -8.55605e-007 -0.0146502 -9.04739e-005 4.1691e-007 -2.27527e-006 1.81705e-006 9.72246e-007 -1.31813e-006 5.40399e-007 -8.55605e-007 -0.0187349 -0.00117594 5.69551e-005 -1.31807e-006 5.40543e-007 -8.55504e-007 -1.31813e-006 5.40399e-007 -8.55605e-007 -0.0122506 -0.00323928 0.00067404 -1.31811e-006 5.40509e-007 -8.55513e-007 -1.31813e-006 5.40399e-007 -8.55605e-007 -4.34747e-006 2.95536e-007 9.2505e-007 -1.31813e-006 5.40399e-007 -8.55605e-007 -2.39532e-006 -7.18495e-006 7.79951e-007 84.0168 6.92839 8.05856 -1.47577e-005 -9.56571e-006 95.9974 37.998 -1.30968e-006 1.93965e-006 4.00339e-007 5.03878e-009 -2.28432e-006 -2.01551e-008 1.60136e-006 -2.69229e-006 4.00339e-007 5.03877e-009 -2.28432e-006 4.00339e-007 5.03878e-009 -2.28432e-006 0.0150166 -9.77357e-005 -8.8006e-006 4.00249e-007 4.74003e-009 -2.28432e-006 4.00339e-007 5.03878e-009 -2.28432e-006 0.0190026 -0.00118595 -6.38624e-005 4.00204e-007 4.66716e-009 -2.28432e-006 4.00339e-007 5.03878e-009 -2.28432e-006 0.0123071 -0.00325495 -0.000681796 4.00202e-007 4.81495e-009 -2.28433e-006 4.00339e-007 5.03878e-009 -2.28432e-006 -2.01551e-008 1.60136e-006 -2.69229e-006 4.00339e-007 5.03877e-009 -2.28432e-006 -24.6564 -9.93288 -29.3022 -0.00324115 6.22634 -6.95962 -4.14701 20.4504 0.748364 6.97539e-006 3.10473e-006 3.14296e-007 47.5235 -48.6511 87.206 -0.0288068 75.8492 -2.58668 1.96342 11.3081 -0.0656614 6.21202e-017 3.18055e-015 -3.72721e-017 
2.35796 -8.31898 -56.9569 -0.00682213 -63.0021 43.9937 1.80224 12.9286 3.19259 2.95836 25.9347 6.20223 2.95837 25.9347 6.20222 -2.25315e-005 1.46854e-007 5.05886e-006 -0.000449581 -11.5389 29.9968 -2.39532e-006 -7.18495e-006 7.79951e-007 -6.75275 22.6147 -20.6546 -18.77 -7.03917 -70.1683 12.3522 -54.4691 -36.0561 3.18055e-015 -1.59028e-015 -3.18055e-015 -6.67404e-006 1.65591e-006 3.89529e-006 -2.02091e-006 -1.06484e-006 -2.04519e-006 3.18055e-015 -1.59028e-015 -3.18055e-015 -0.0146354 -8.74128e-005 2.70536e-006 -1.06497e-006 -2.34112e-006 -3.8731e-006 3.18055e-015 -1.59028e-015 -3.18055e-015 -0.0187563 -0.00117734 5.85639e-005 -2.02253e-006 -1.0646e-006 -2.04534e-006 3.18055e-015 -1.59028e-015 -3.18055e-015 -0.0122603 -0.00323786 0.000679717 -2.02202e-006 -1.06489e-006 -2.04519e-006 3.18055e-015 -1.59028e-015 -3.18055e-015 -6.67404e-006 1.65591e-006 3.89529e-006 -2.02091e-006 -1.06484e-006 -2.04519e-006 -2.39532e-006 -7.18495e-006 7.79951e-007 84.0168 6.9284 8.05856 2.23757e-007 -5.83888e-006 94.3892 37.998 -4.80691e-006 9.50112e-008 -9.85381e-007 3.81448e-006 -8.53097e-007 -7.95139e-016 -3.18055e-015 -2.18663e-015 -9.8538e-007 3.81448e-006 -8.53097e-007 -9.85381e-007 3.81448e-006 -8.53097e-007 0.0150247 -8.98557e-005 8.99977e-007 -4.40344e-007 1.50668e-006 -5.12989e-007 -9.85381e-007 3.81448e-006 -8.53097e-007 0.0189318 -0.00118941 -6.0611e-005 -4.40015e-007 1.50657e-006 -5.13041e-007 -9.85381e-007 3.81448e-006 -8.53097e-007 0.012246 -0.00324328 -0.000672692 -4.40605e-007 1.50642e-006 -5.12998e-007 -9.85381e-007 3.81448e-006 -8.53097e-007 -7.95139e-016 -3.18055e-015 -2.18663e-015 -9.8538e-007 3.81448e-006 -8.53097e-007 -24.6846 -9.94523 -29.3062 -0.00301398 6.28022 -6.52769 -4.12842 20.4525 0.745085 2.37774e-006 9.94356e-007 -9.48875e-007 47.522 -48.6646 87.2147 -0.028501 75.8375 -2.22121 1.95257 11.3018 -0.0644838 0 0 -1.2424e-017 
2.35807 -8.3191 -56.9569 -0.00682213 -63.0021 43.9937 1.80225 12.9286 3.19258 2.95836 25.9347 6.20223 2.95837 25.9347 6.20222 0.000276295 -0.000115889 -6.34546e-005 -0.000626227 -11.0775 29.9968 -2.39532e-006 -7.18495e-006 7.79952e-007 -6.75277 22.6147 -20.6546 -18.77 -7.03916 -70.1683 12.3522 -54.4691 -36.0561 -3.18055e-015 1.59028e-015 1.59028e-015 -1.71121e-006 -7.85261e-007 2.63626e-006 -1.06574e-006 -2.34162e-006 -3.87281e-006 -3.18055e-015 1.59028e-015 1.59028e-015 -0.0147026 -8.67478e-005 4.83868e-006 -1.06496e-006 -2.34112e-006 -3.87311e-006 -3.18055e-015 1.59028e-015 1.59028e-015 -0.0187514 -0.00117978 5.73036e-005 -1.06479e-006 -2.34093e-006 -3.87318e-006 -3.18055e-015 1.59028e-015 1.59028e-015 -0.0122575 -0.00324558 0.000676886 -1.06521e-006 -2.34103e-006 -3.87306e-006 -3.18055e-015 1.59028e-015 1.59028e-015 -1.71121e-006 -7.85261e-007 2.63626e-006 -1.06574e-006 -2.34162e-006 -3.87281e-006 -2.39532e-006 -7.18495e-006 7.79952e-007 84.0168 6.9284 8.05856 7.17056e-008 -2.95768e-006 92.7776 37.998 -2.35614e-006 9.31159e-006 4.94715e-007 1.76557e-006 7.00265e-007 1.59028e-015 6.36111e-015 -5.96354e-015 -7.95139e-016 6.36111e-015 5.96354e-016 4.94715e-007 1.76557e-006 7.00265e-007 0.0149562 -8.9334e-005 -5.74618e-006 -0 0 9.93923e-015 4.94715e-007 1.76557e-006 7.00265e-007 0.0189705 -0.00118562 -6.12689e-005 -7.95139e-016 0 -4.77083e-015 4.94715e-007 1.76557e-006 7.00265e-007 0.0123059 -0.00325683 -0.000676631 6.36111e-015 -3.18055e-015 -1.5704e-014 4.94715e-007 1.76557e-006 7.00265e-007 1.59028e-015 6.36111e-015 -5.96354e-015 -7.95139e-016 6.36111e-015 5.96354e-016 -24.7116 -9.95529 -29.3099 -0.00277379 6.3287 -6.09563 -4.11032 20.4571 0.741984 -1.51339e-006 -3.4833e-006 3.27991e-006 47.5205 -48.6782 87.2235 -0.0281197 75.8256 -1.85577 1.94175 11.2958 -0.0633042 -2.48481e-017 3.18055e-015 -3.72721e-017 
2.35817 -8.31923 -56.957 -0.00682213 -63.0021 43.9937 1.80224 12.9286 3.19257 2.95836 25.9347 6.20221 2.95837 25.9347 6.20225 0.000249217 -8.43142e-005 -5.85082e-005 -0.000765646 -10.616 29.9968 2.95565e-006 2.69527e-008 -9.68954e-006 -6.75276 22.6147 -20.6546 -18.77 -7.03915 -70.1683 12.3522 -54.4691 -36.0561 2.32656e-006 -1.36037e-006 -2.97024e-006 2.52395e-007 -2.88202e-006 -3.0172e-006 4.34747e-006 -2.95535e-007 -9.2505e-007 2.32656e-006 -1.36037e-006 -2.97024e-006 -0.014695 -8.96849e-005 -8.87051e-007 4.34723e-006 -2.95418e-007 -9.25091e-007 2.32656e-006 -1.36037e-006 -2.97024e-006 -0.0187359 -0.00117828 5.30789e-005 4.34716e-006 -2.95405e-007 -9.25142e-007 2.32656e-006 -1.36037e-006 -2.97024e-006 -0.0121531 -0.0032164 0.00066841 4.34725e-006 -2.95515e-007 -9.25192e-007 2.32656e-006 -1.36037e-006 -2.97024e-006 2.52395e-007 -2.88202e-006 -3.0172e-006 4.34747e-006 -2.95535e-007 -9.2505e-007 2.95565e-006 2.69527e-008 -9.68954e-006 84.0168 6.9284 8.05857 -1.51551e-005 -1.02204e-005 91.163 37.998 -2.04841e-005 -6.87641e-007 -7.95139e-016 1.59028e-015 7.15625e-015 -1.08439e-006 3.89543e-006 -7.02151e-007 2.38542e-015 1.59028e-015 4.17448e-015 -7.95139e-016 1.59028e-015 7.15625e-015 0.0149811 -9.20138e-005 -2.54025e-006 -0 0 6.95746e-015 -7.95139e-016 1.59028e-015 7.15625e-015 0.0189867 -0.00118654 -6.21687e-005 -7.95139e-016 6.36111e-015 5.76476e-015 -7.95139e-016 1.59028e-015 7.15625e-015 0.0122847 -0.00324629 -0.00067881 2.38542e-015 4.77083e-015 -7.55382e-015 -7.95139e-016 1.59028e-015 7.15625e-015 -1.08439e-006 3.89543e-006 -7.02151e-007 2.38542e-015 1.59028e-015 4.17448e-015 -24.7377 -9.96356 -29.3135 -0.00253822 6.37292 -5.66348 -4.09259 20.4636 0.739023 1.95924e-006 2.74916e-006 8.46231e-007 47.5191 -48.6918 87.2323 -0.0277935 75.8136 -1.49024 1.93094 11.2898 -0.0621296 1.26838e-008 4.10354e-006 -4.23111e-009 
